<svg xmlns="http://www.w3.org/2000/svg" viewBox="0 0 110.57 110.57">
    <g id="Layer_2" data-name="Layer 2">
        <g id="Layer_1-2" data-name="Layer 1">
            <path class="cls-1"
                  d="M110.57,55.29a55.28,55.28,0,1,0-91.11,42,1.83,1.83,0,0,0,.56.42,54.7,54.7,0,0,0,35.4,12.84A55.87,55.87,0,0,0,90.54,98a2.22,2.22,0,0,0,1.27-1,56,56,0,0,0,18.77-41.74Zm-105.49,0A50.21,50.21,0,1,1,91.4,90.13,37.46,37.46,0,0,0,72.78,64.89a21.56,21.56,0,0,0,4.65-13.54,22,22,0,0,0-44,0,22.76,22.76,0,0,0,4.65,13.54,36.59,36.59,0,0,0-18.6,25.24A49.25,49.25,0,0,1,5.08,55.29Zm33.29-3.81A16.92,16.92,0,1,1,55.29,68.4,17,17,0,0,1,38.37,51.48ZM24,94.49c.29-4.09,2.53-17.92,17.77-25.67a21.85,21.85,0,0,0,13.54,4.65A22.39,22.39,0,0,0,69,68.68,32.23,32.23,0,0,1,86.89,94.35a50.27,50.27,0,0,1-31.45,11.14A49.74,49.74,0,0,1,24,94.49Zm0,0"/>
        </g>
    </g>
</svg>